# xmcd
#
# Track frame offsets: 
#        150
#        36619
#        53593
#        81148
#        95854
#        121077
#        155006
#        175061
#        197751
#        230400
#        254767
#
# Disc length: 4140 seconds
#
# Revision: 0
# Processed by: cddbd v1.5.2PL0 Copyright (c) Steve Scherf et al.
# Submitted via: ExactAudioCopy v0.99pb5
#
DISCID=96102a0b
DTITLE=Magda Piskorczyk - Master Class
DYEAR=2012
DGENRE=Blues
TTITLE0=01.Walk with me
TTITLE1=02.Freylacher choosid
TTITLE2=03.Gracias a la vida
TTITLE3=04.Tonight
TTITLE4=05.Oberek
TTITLE5=06.Hard time killing floor blues
TTITLE6=07.Dark hollow
TTITLE7=08.Mujhe kisise pyar ho gaya
TTITLE8=09.Heartbeat
TTITLE9=10.Milosc ci weszystko wybaczy
TTITLE10=11.I believe in music
EXTD=
EXTT0=
EXTT1=
EXTT2=
EXTT3=
EXTT4=
EXTT5=
EXTT6=
EXTT7=
EXTT8=
EXTT9=
EXTT10=
PLAYORDER=
